<?xml version="1.0" standalone="no"?>
<!DOCTYPE svg PUBLIC "-//W3C//DTD SVG 20010904//EN"
 "http://www.w3.org/TR/2001/REC-SVG-20010904/DTD/svg10.dtd">
<svg version="1.0" xmlns="http://www.w3.org/2000/svg"
 width="512.000000pt" height="512.000000pt" viewBox="0 0 512.000000 512.000000"
 preserveAspectRatio="xMidYMid meet">
<metadata>
Created by potrace 1.11, written by Peter Selinger 2001-2013
</metadata>
<g transform="translate(0.000000,512.000000) scale(0.100000,-0.100000)"
fill="#000000" stroke="none">
<path d="M1597 4894 c-1 -1 -33 -4 -71 -8 -38 -4 -79 -9 -90 -11 -12 -3 -32
-7 -46 -9 -14 -2 -45 -9 -70 -16 -497 -129 -877 -501 -1015 -992 -25 -87 -27
-97 -44 -218 -10 -65 -7 -342 3 -370 3 -8 7 -31 10 -50 3 -19 15 -70 26 -113
121 -457 476 -832 930 -981 l100 -32 36 -75 c182 -380 566 -677 986 -763 240
-49 514 -33 733 44 33 11 65 22 70 24 36 11 114 49 210 100 36 19 199 144 238
182 l39 37 -49 50 c-98 101 -366 367 -370 367 -2 0 -31 -22 -63 -49 -270 -225
-665 -248 -958 -58 -82 53 -176 137 -165 147 4 4 40 17 78 29 87 28 252 106
327 154 57 37 179 135 211 171 17 19 16 21 -15 54 -81 85 -382 382 -387 382
-3 0 -24 -17 -46 -36 -84 -76 -177 -128 -289 -163 -100 -31 -100 -31 -92 37 9
84 15 109 37 176 111 327 418 554 759 559 99 1 182 -7 222 -22 13 -5 25 -8 28
-8 12 1 90 -28 135 -51 55 -27 133 -81 180 -124 17 -15 32 -28 35 -28 3 0 99
94 215 210 l209 209 -41 39 c-203 193 -504 331 -801 367 -70 9 -265 9 -322 1
-133 -20 -270 -52 -335 -80 -16 -8 -59 -26 -95 -41 -288 -124 -552 -384 -690
-678 -43 -92 -95 -241 -104 -303 -4 -20 -8 -40 -11 -44 -2 -4 -7 -32 -11 -61
-3 -30 -8 -56 -10 -58 -2 -2 -30 16 -61 40 -132 102 -252 290 -292 454 -25
102 -23 298 3 395 63 233 224 427 444 534 68 34 115 51 165 61 15 3 39 7 53
10 68 15 239 10 324 -9 107 -23 237 -89 331 -168 l61 -51 212 212 211 211 -45
41 c-56 52 -184 149 -195 149 -5 0 -16 6 -24 14 -55 49 -333 159 -456 181 -16
2 -41 7 -55 10 -53 11 -294 26 -303 19z"/>
<path d="M4025 3040 c-1 -3 -2 -383 -3 -845 0 -462 -3 -862 -6 -890 -41 -301
-195 -428 -527 -434 -177 -4 -309 47 -409 156 l-48 53 -119 -102 c-65 -55
-134 -115 -153 -132 -19 -17 -68 -59 -108 -93 l-72 -62 41 -48 c169 -197 400
-324 659 -360 85 -12 357 -8 440 6 314 55 556 201 705 426 68 104 97 161 129
262 27 87 34 116 42 173 3 19 9 56 13 82 5 26 8 445 7 930 l-1 883 -293 0
c-162 0 -295 -2 -297 -5z"/>
</g>
</svg>
